# xmcd
#
# Track frame offsets:
#	187
#	12117
#	26160
#	37970
#	57640
#	75327
#	90782
#	108930
#	124752
#	140837
#
# Disc length: 2071 seconds
#
# Revision: 6
# Processed by: cddbd v1.5.1PL0 Copyright (c) Steve Scherf et al.
# Submitted via: dBpowerAMP V4.0
#
DISCID=7508150a
DTITLE=Alan Jackson - Everything I Love
DYEAR=1996
DGENRE=Country
TTITLE0=Little Bitty
TTITLE1=Everything I Love
TTITLE2=Buicks To The Moon
TTITLE3=Between The Devil And Me
TTITLE4=There Goes
TTITLE5=A House With No Curtains
TTITLE6=Who's Cheatin' Who
TTITLE7=Walk On The Rocks
TTITLE8=Must've Had A Ball
TTITLE9=It's Time You Learned About Goodbye
EXTD=Alan Jackson\nEverything I Love
EXTT0=
EXTT1=
EXTT2=
EXTT3=
EXTT4=
EXTT5=
EXTT6=
EXTT7=
EXTT8=
EXTT9=
PLAYORDER=
